<?xml version="1.0" standalone="no"?>
<!DOCTYPE svg PUBLIC "-//W3C//DTD SVG 20010904//EN"
 "http://www.w3.org/TR/2001/REC-SVG-20010904/DTD/svg10.dtd">
<svg version="1.0" xmlns="http://www.w3.org/2000/svg"
 width="266.000000pt" height="266.000000pt" viewBox="0 0 266.000000 266.000000"
 preserveAspectRatio="xMidYMid meet">
<metadata>
Created by potrace 1.14, written by Peter Selinger 2001-2017
</metadata>
<g transform="translate(0.000000,266.000000) scale(0.100000,-0.100000)"
fill="#000000" stroke="none">
<path d="M674 2086 c-1 -62 1 -63 77 -58 l48 4 -2 51 -2 52 -60 3 -60 3 -1
-55z"/>
<path d="M919 2133 c0 -5 -1 -29 -2 -55 -2 -46 -1 -48 25 -49 104 -4 103 -5
101 48 -1 27 -2 51 -2 56 -1 4 -28 7 -61 7 -33 0 -60 -3 -61 -7z"/>
<path d="M1160 2085 c0 -59 -3 -57 70 -57 11 0 116 0 233 1 l213 1 17 48 c9
26 17 50 17 55 0 4 -124 7 -275 7 l-275 0 0 -55z"/>
<path d="M550 1804 c-72 -25 -137 -79 -180 -149 -30 -48 -90 -236 -90 -281 0
-56 33 -103 95 -134 48 -24 53 -24 321 -25 150 0 276 -3 279 -7 7 -7 -22 -107
-35 -122 -9 -10 -427 -12 -437 -2 -4 3 -1 12 5 18 7 7 12 20 12 30 0 17 -11
18 -167 16 l-167 -3 -22 -71 c-28 -87 -21 -131 27 -180 58 -60 89 -64 476 -63
286 0 351 3 391 16 57 19 96 45 140 92 43 45 53 66 101 198 44 126 46 176 7
228 -51 66 -68 70 -389 73 l-289 3 7 26 c5 22 -1 32 -42 69 l-48 43 283 1 283
0 -7 -22 c-4 -13 -9 -29 -11 -35 -3 -7 -1 -13 3 -14 28 -4 311 -4 322 -1 21 7
55 137 47 180 -8 46 -78 116 -125 125 -18 4 -193 7 -389 7 -295 -1 -364 -4
-401 -16z"/>
<path d="M1576 1748 c-46 -127 -116 -330 -145 -418 -16 -47 -61 -177 -100
-289 -39 -112 -71 -204 -71 -205 0 -1 75 -1 167 -1 l167 0 52 152 c29 84 55
157 58 161 3 5 39 9 80 9 l75 1 33 -51 c18 -28 42 -67 53 -88 11 -20 83 -140
160 -268 l140 -231 193 0 c151 0 193 3 189 13 -5 13 -366 558 -392 591 -19 25
-11 36 29 36 80 0 191 52 246 117 38 45 47 63 95 201 49 136 58 190 43 234
-13 37 -69 85 -115 97 -24 7 -204 11 -484 11 l-447 0 -26 -72z m724 -175 c0
-13 -50 -157 -59 -172 -7 -11 -46 -14 -192 -13 -282 1 -271 0 -262 15 4 6 13
27 19 44 11 32 10 34 -40 83 l-51 50 293 0 c160 0 292 -3 292 -7z"/>
<path d="M8 606 c-1 -17 -2 -43 0 -58 3 -27 5 -28 63 -28 l59 0 0 55 0 55 -37
1 c-21 0 -48 2 -60 3 -17 2 -22 -3 -25 -28z"/>
<path d="M268 632 c-15 -3 -18 -14 -18 -58 l0 -55 63 3 62 3 0 50 0 50 -45 5
c-25 3 -53 4 -62 2z"/>
<path d="M507 632 c-14 -3 -17 -14 -16 -58 l2 -54 754 0 754 0 -26 43 c-14 23
-29 48 -34 55 -6 12 -134 14 -713 15 -387 1 -712 1 -721 -1z"/>
</g>
</svg>
